<svg width="54" height="54" viewBox="0 0 54 54" fill="none" xmlns="http://www.w3.org/2000/svg">
<g clip-path="url(#clip0_4_374)">
<path d="M52.6233 24.6282L29.3712 1.37695C28.0331 0.0379229 25.8612 0.0379229 24.5209 1.37695L19.693 6.20574L25.8178 12.3305C27.2416 11.85 28.8734 12.1723 30.0079 13.3067C31.1482 14.4483 31.468 16.0941 30.9756 17.5225L36.8785 23.4258C38.3066 22.9335 39.9548 23.2516 41.0947 24.394C42.6894 25.9875 42.6894 28.5706 41.0947 30.1649C40.7158 30.544 40.2658 30.8448 39.7706 31.05C39.2753 31.2552 38.7445 31.3608 38.2085 31.3608C37.6724 31.3608 37.1416 31.2552 36.6464 31.05C36.1511 30.8448 35.7012 30.544 35.3222 30.1649C34.753 29.5951 34.365 28.8696 34.207 28.0799C34.0489 27.2901 34.128 26.4713 34.4342 25.7263L28.9295 20.2217L28.9287 34.7093C29.3281 34.9059 29.6928 35.1664 30.0083 35.4805C31.6021 37.0739 31.6021 39.6562 30.0083 41.253C28.414 42.8464 25.83 42.8464 24.2374 41.253C22.6436 39.6566 22.6436 37.0743 24.2374 35.4805C24.6197 35.0985 25.0738 34.7959 25.5735 34.5903V19.9686C25.0732 19.7638 24.6189 19.461 24.2374 19.078C23.03 17.8714 22.7394 16.0995 23.3587 14.6162L17.3204 8.57794L1.37688 24.5206C0.733658 25.164 0.372314 26.0366 0.372314 26.9464C0.372314 27.8562 0.733658 28.7287 1.37688 29.3722L24.6294 52.6234C25.9684 53.9624 28.1394 53.9624 29.4805 52.6234L52.6237 29.4802C53.2668 28.8365 53.628 27.9639 53.6279 27.0541C53.6279 26.1442 53.2665 25.2717 52.6233 24.6282Z" fill="#F34F29"/>
</g>
<defs>
<clipPath id="clip0_4_374">
<rect width="54" height="54" fill="white"/>
</clipPath>
</defs>
</svg>
