<svg width="54" height="54" viewBox="0 0 54 54" fill="none" xmlns="http://www.w3.org/2000/svg">
<path d="M9.95954 45.9017L6.16772 3.375H47.8321L44.0352 45.8949L26.9746 50.625L9.95954 45.9017Z" fill="#E44F26"/>
<path d="M27 47.0103L40.7869 43.1882L44.0302 6.85291H27V47.0103Z" fill="#F1662A"/>
<path d="M27 22.6243H20.0981L19.6223 17.2833H27V12.0673H13.9219L14.0468 13.4679L15.3276 27.8403H27V22.6243ZM27 36.1698L26.9764 36.1766L21.168 34.6089L20.7968 30.4492H15.5604L16.2911 38.6369L26.9764 41.6036L27 41.5968V36.1698Z" fill="#EBEBEB"/>
<path d="M26.9814 22.6243V27.8403H33.4041L32.7999 34.6055L26.9814 36.1749V41.6019L37.6751 38.6369L37.7528 37.7561L38.9779 24.0249L39.1061 22.6243H26.9814ZM26.9814 12.0673V17.2833H39.5803L39.6849 16.1122L39.9229 13.4679L40.0478 12.0673H26.9814Z" fill="white"/>
</svg>
