<svg width="68" height="68" viewBox="0 0 68 68" fill="none" xmlns="http://www.w3.org/2000/svg">
<path d="M16.15 29.3059C16.8052 29.2233 17.4704 29.2714 18.1069 29.4476C18.7434 29.6238 19.3386 29.9245 19.8581 30.3323C20.1928 30.849 20.4063 31.4347 20.4824 32.0456C20.5586 32.6565 20.4956 33.2767 20.298 33.8598C20.1241 35.2949 19.4301 36.6165 18.3472 37.5743C17.0411 38.4147 15.4977 38.8092 13.9485 38.6984H10.9735L12.801 29.325L16.15 29.3059ZM4.25 48.1887H9.1375L10.2956 42.2387H14.4755C16.0155 42.2795 17.5525 42.081 19.0315 41.65C20.2453 41.2463 21.3553 40.5803 22.2828 39.6993C23.8818 38.2581 24.9605 36.3294 25.3513 34.2125C25.6576 33.1585 25.7114 32.0471 25.5083 30.9683C25.3053 29.8896 24.8511 28.8738 24.1825 28.0033C23.3762 27.204 22.405 26.5904 21.337 26.2054C20.2689 25.8204 19.1296 25.6732 17.9988 25.7742H8.62113L4.25 48.1887ZM28.9361 19.8114H33.7875L32.6124 25.7614H36.9283C38.911 25.5545 40.9029 26.0583 42.5489 27.183C43.094 27.8017 43.4666 28.553 43.6292 29.3613C43.7918 30.1697 43.7388 31.0066 43.4754 31.7879L41.4481 42.2195H36.5394L38.4689 32.3022C38.6027 31.9237 38.6503 31.5201 38.6084 31.1209C38.5665 30.7217 38.4361 30.3368 38.2266 29.9944C37.5232 29.4897 36.6538 29.2723 35.7956 29.3867H31.9218L29.4249 42.2301H24.5629L28.9361 19.8114ZM54.2704 29.3059C54.9256 29.2233 55.5908 29.2714 56.2273 29.4476C56.8638 29.6238 57.459 29.9245 57.9785 30.3323C58.3132 30.849 58.5266 31.4347 58.6028 32.0456C58.679 32.6565 58.6159 33.2767 58.4184 33.8598C58.2445 35.2949 57.5505 36.6165 56.4676 37.5743C55.1591 38.4165 53.6124 38.811 52.0604 38.6984H49.0875L50.9108 29.3144L54.2704 29.3059ZM42.3704 48.1887H47.2579L48.416 42.2387H52.598C54.1408 42.2804 55.6807 42.0818 57.1625 41.65C58.3763 41.2463 59.4863 40.5803 60.4138 39.6993C62.0089 38.2566 63.0837 36.3281 63.4716 34.2125C63.7779 33.1585 63.8317 32.0471 63.6287 30.9683C63.4257 29.8896 62.9715 28.8738 62.3029 28.0033C61.4962 27.2054 60.5252 26.5932 59.4575 26.2093C58.3899 25.8254 57.2513 25.6791 56.1212 25.7805H46.7287L42.3704 48.1887Z" fill="#8993BE"/>
</svg>
