<svg width="60" height="60" viewBox="0 0 60 60" fill="none" xmlns="http://www.w3.org/2000/svg">
<path d="M30 34.6388C32.5888 34.6388 34.6875 32.5401 34.6875 29.9513C34.6875 27.3625 32.5888 25.2638 30 25.2638C27.4112 25.2638 25.3125 27.3625 25.3125 29.9513C25.3125 32.5401 27.4112 34.6388 30 34.6388Z" fill="#00D8FF"/>
<path d="M30 40.6987C24.3659 40.8345 18.746 40.075 13.35 38.4487C10.8574 37.6585 8.53263 36.4138 6.49313 34.7774C5.7146 34.2187 5.0663 33.498 4.59277 32.6649C4.11925 31.8317 3.83174 30.906 3.75 29.9512C3.75 26.8518 7.155 23.8143 12.8587 21.8268C18.3992 20.0672 24.1875 19.2137 30 19.2993C35.735 19.22 41.4458 20.0581 46.9162 21.7818C49.3164 22.548 51.5622 23.7325 53.55 25.2806C54.3141 25.8144 54.9519 26.5092 55.4184 27.3162C55.8849 28.1232 56.1688 29.0226 56.25 29.9512C56.25 33.1724 52.4438 36.4368 46.3125 38.4656C41.0211 40.0394 35.5197 40.7925 30 40.6987ZM30 21.5418C24.4391 21.4691 18.9019 22.2805 13.5956 23.9456C8.34562 25.7774 5.9925 28.2824 5.9925 29.9456C5.9925 31.6856 8.52188 34.4212 14.0756 36.3206C19.2376 37.8694 24.6124 38.5902 30 38.4562C35.2808 38.5506 40.5449 37.8361 45.6094 36.3374C51.375 34.4268 54 31.6874 54 29.9512C53.9051 29.3555 53.6878 28.7859 53.3619 28.2783C53.0359 27.7707 52.6084 27.336 52.1063 27.0018C50.3282 25.6279 48.3218 24.5781 46.1794 23.9006C40.946 22.2588 35.4843 21.4625 30 21.5418Z" fill="#00D8FF"/>
<path d="M19.35 53.3306C18.4753 53.3506 17.611 53.1384 16.845 52.7156C14.16 51.1668 13.23 46.7006 14.3569 40.7662C15.6008 35.0875 17.7535 29.6468 20.7319 24.6543C23.5276 19.6468 27.1059 15.1185 31.3312 11.2406C33.194 9.54392 35.3421 8.18995 37.6763 7.24121C38.521 6.8466 39.442 6.64209 40.3744 6.64209C41.3067 6.64209 42.2278 6.8466 43.0725 7.24121C45.8644 8.84996 46.7888 13.7775 45.4856 20.1018C44.205 25.4729 42.1081 30.6159 39.2681 35.3512C36.571 40.2997 33.1053 44.7887 29.0006 48.6506C27.0708 50.4146 24.8313 51.8061 22.395 52.755C21.4199 53.1179 20.3903 53.3125 19.35 53.3306ZM22.6744 25.7681C19.8335 30.5488 17.7703 35.7505 16.5619 41.1787C15.525 46.6443 16.5206 49.9312 17.9681 50.7675C19.4681 51.6356 23.1094 50.8125 27.5306 46.95C31.4496 43.2507 34.7576 38.9536 37.3313 34.2187C40.0518 29.6916 42.0632 24.7746 43.2956 19.6387C44.5219 13.6856 43.4625 10.0406 41.9588 9.17434C41.3951 8.95873 40.7928 8.86224 40.19 8.89096C39.5872 8.91968 38.9969 9.07299 38.4563 9.34121C36.3783 10.1989 34.4678 11.4163 32.8125 12.9375C28.7759 16.6522 25.3579 20.9874 22.6875 25.7793L22.6744 25.7681Z" fill="#00D8FF"/>
<path d="M40.6444 53.355C38.1038 53.355 34.8769 51.8175 31.5169 48.9281C27.218 45.0145 23.5793 40.4324 20.7413 35.3587C17.7996 30.4353 15.6639 25.0733 14.415 19.4756C13.8747 17.0126 13.7744 14.4735 14.1188 11.9756C14.1997 11.0493 14.4824 10.1519 14.9468 9.34632C15.4113 8.54078 16.0464 7.8466 16.8075 7.31246C19.5956 5.69809 24.3263 7.35746 29.1544 11.6437C33.168 15.4353 36.5764 19.82 39.2606 24.645C42.2007 29.4533 44.3589 34.698 45.6544 40.1831C46.219 42.7363 46.3061 45.3719 45.9113 47.9568C45.8177 48.9102 45.5189 49.832 45.0353 50.659C44.5518 51.4859 43.895 52.1984 43.11 52.7475C42.3562 53.1642 41.5055 53.3738 40.6444 53.355ZM22.6819 34.23C25.4047 39.0786 28.8805 43.4639 32.9794 47.2218C37.1963 50.85 40.5413 51.63 41.9794 50.7843C43.4794 49.9125 44.5856 46.3537 43.4456 40.5956C42.197 35.3585 40.127 30.3521 37.3125 25.7625C34.751 21.1446 31.4977 16.9459 27.6656 13.3125C23.1206 9.27746 19.4344 8.37559 17.9325 9.24559C17.4647 9.62622 17.0807 10.0996 16.8048 10.6359C16.5289 11.1722 16.367 11.7599 16.3294 12.3618C16.0315 14.5895 16.1286 16.8522 16.6163 19.0462C17.8179 24.3993 19.8662 29.5262 22.6838 34.2337L22.6819 34.23Z" fill="#00D8FF"/>
</svg>
