<svg width="58" height="44" viewBox="0 0 58 44" fill="none" xmlns="http://www.w3.org/2000/svg">
<g clip-path="url(#clip0_4_410)">
<path d="M49.9074 25.3261C47.8897 25.3366 46.1358 25.8282 44.6675 26.5549C44.1285 25.4755 43.5897 24.5139 43.4948 23.8085C43.389 22.9858 43.2623 22.4835 43.389 21.5004C43.5159 20.5172 44.0863 19.1173 44.0757 19.0105C44.0651 18.9037 43.9488 18.4013 42.7868 18.3908C41.6247 18.3803 40.6211 18.6151 40.5048 18.925C40.3886 19.2348 40.1668 19.9402 40.0189 20.6666C39.8181 21.7355 37.6948 25.5502 36.48 27.5485C36.0889 26.7687 35.7509 26.0846 35.6768 25.5396C35.5712 24.7169 35.4443 24.2146 35.5712 23.2315C35.6981 22.2484 36.2686 20.8486 36.2579 20.7416C36.2473 20.6348 36.1311 20.1325 34.969 20.1219C33.8068 20.1111 32.8031 20.3463 32.6871 20.6561C32.5709 20.9662 32.444 21.6926 32.2011 22.398C31.9582 23.1034 29.1373 29.4724 28.3978 31.1178C28.0989 31.7838 27.7854 32.4429 27.4576 33.0948C27.4576 33.0948 27.4469 33.1269 27.4152 33.1803C27.3122 33.3847 27.2066 33.5877 27.0985 33.7894V33.8C26.9399 34.0887 26.7709 34.3557 26.6863 34.3557C26.6229 34.3557 26.5067 33.5864 26.7074 32.5391C27.13 30.3272 28.1336 26.8862 28.1232 26.7687C28.1232 26.7045 28.3133 26.1062 27.4682 25.7961C26.644 25.4863 26.3483 25.9991 26.2742 25.9991C26.2001 25.9991 26.1474 26.1809 26.1474 26.1809C26.1474 26.1809 27.0667 22.3125 24.3938 22.3125C22.7247 22.3125 20.4214 24.1612 19.2805 25.8282C17.9834 26.5421 16.6875 27.2581 15.3927 27.9762C14.7696 28.3288 14.125 28.6815 13.5228 29.0127C13.4805 28.97 13.4383 28.9164 13.396 28.8738C10.1631 25.3795 4.18371 22.9109 4.43723 18.2198C4.53239 16.51 5.11329 12.0218 15.921 6.57198C24.8163 2.13715 31.8948 3.36594 33.1203 6.09096C34.8739 9.98084 29.3276 17.2046 20.1362 18.2517C16.6288 18.6472 14.7905 17.2793 14.3258 16.7665C13.8398 16.232 13.7657 16.2 13.5861 16.307C13.2904 16.4674 13.4805 16.9482 13.5861 17.2259C13.8609 17.9524 14.9912 19.2348 16.9034 19.8655C18.5938 20.421 22.7034 20.731 27.6794 18.7861C33.2469 16.606 37.5996 10.5471 36.3214 5.47129C35.0429 0.320544 26.5912 -1.3785 18.5938 1.49594C13.8398 3.20598 8.68414 5.89869 4.976 9.40379C0.570488 13.5712 -0.126871 17.1939 0.158371 18.7114C1.18334 24.097 8.52578 27.6021 11.4627 30.1988C11.3148 30.2843 11.1772 30.3593 11.0612 30.4234C9.59266 31.1606 3.99339 34.1206 2.5989 37.2517C1.01432 40.7994 2.85265 43.3429 4.06748 43.6846C7.83907 44.7427 11.7162 42.8406 13.7974 39.6987C15.8786 36.5571 15.6251 32.4749 14.6638 30.6049C14.6532 30.5836 14.6427 30.5621 14.6214 30.5408C15.0018 30.3164 15.3927 30.0813 15.7731 29.8569C16.4722 29.4389 17.1802 29.0362 17.8966 28.6492C17.5373 29.6431 17.2731 30.8293 17.1465 32.5391C16.9879 34.5482 17.8012 37.1554 18.8684 38.1812C19.3439 38.6303 19.9037 38.6409 20.2631 38.6409C21.5096 38.6409 22.0697 37.5936 22.693 36.354C23.4535 34.8367 24.1402 33.0735 24.1402 33.0735C24.1402 33.0735 23.2845 37.8395 25.6088 37.8395C26.4539 37.8395 27.3096 36.728 27.69 36.1618V36.1723C27.69 36.1723 27.7111 36.1402 27.7535 36.0655C27.838 35.9266 27.8908 35.8409 27.8908 35.8409V35.8198C28.2288 35.2213 28.9896 33.8641 30.1199 31.6094C31.5778 28.7028 32.983 25.0696 32.983 25.0696C32.983 25.0696 33.1098 25.9565 33.5428 27.4312C33.7966 28.2968 34.3245 29.2478 34.7472 30.1668C34.4092 30.6478 34.1978 30.9148 34.1978 30.9148L34.2084 30.9255C33.9336 31.2888 33.638 31.6841 33.3104 32.0691C32.1587 33.458 30.7855 35.0505 30.5952 35.5098C30.3732 36.0547 30.4262 36.4503 30.849 36.7709C31.1553 37.006 31.7045 37.0379 32.2645 37.006C33.2999 36.9311 34.0288 36.6746 34.3879 36.5144C34.948 36.3114 35.6029 36.0013 36.2156 35.5419C37.3461 34.6976 38.0326 33.4901 37.9694 31.8981C37.9377 31.0218 37.6524 30.1454 37.3037 29.3225C37.4096 29.1731 37.5045 29.0234 37.6103 28.8738C39.3956 26.2343 40.7797 23.3383 40.7797 23.3383C40.7797 23.3383 40.9065 24.2252 41.3395 25.7001C41.5509 26.4481 41.9841 27.2602 42.3642 28.0509C40.6845 29.4295 39.6491 31.0323 39.2794 32.0796C38.614 34.0245 39.1314 34.9006 40.114 35.1037C40.5576 35.1999 41.1916 34.9861 41.6565 34.7831C42.248 34.5908 42.9454 34.2597 43.611 33.7679C44.7416 32.9239 45.8295 31.7482 45.7661 30.1562C45.7344 29.4295 45.5443 28.7134 45.2801 28.0188C46.7063 27.4206 48.5446 27.0893 50.8898 27.367C55.9188 27.9654 56.9118 31.1391 56.7215 32.4751C56.5314 33.8107 55.475 34.5374 55.1265 34.7618C54.7776 34.9864 54.6616 35.0611 54.6933 35.2213C54.7355 35.4564 54.9045 35.4458 55.2004 35.403C55.6125 35.3283 57.8416 34.3236 57.9366 31.8658C58.0952 28.7241 55.1369 25.294 49.9074 25.3261ZM11.114 38.5554C9.44472 40.3933 7.12064 41.0879 6.11697 40.5003C5.03943 39.8697 5.46197 37.1554 7.51146 35.2107C8.758 34.0245 10.3639 32.9236 11.431 32.2506C11.6739 32.1009 12.0332 31.8873 12.4664 31.6201C12.5402 31.5773 12.5826 31.556 12.5826 31.556L12.8361 31.3955C13.5861 34.174 12.8678 36.6212 11.114 38.5554ZM23.2634 30.1988C22.6823 31.6309 21.4675 35.2962 20.728 35.0931C20.0941 34.9222 19.703 32.1438 20.6011 29.3974C21.0554 28.0188 22.0167 26.3731 22.5767 25.7322C23.4852 24.7062 24.4889 24.364 24.7318 24.7811C25.0383 25.3261 23.6225 29.3012 23.2634 30.1988ZM33.2893 35.0503C33.0462 35.1786 32.814 35.2641 32.7082 35.1999C32.6343 35.1571 32.814 34.9861 32.814 34.9861C32.814 34.9861 34.0712 33.6185 34.5676 32.9986C34.853 32.6353 35.1908 32.2079 35.5502 31.7269V31.8658C35.5502 33.5009 33.9864 34.6016 33.2891 35.0503M41.0223 33.2658C40.8427 33.1374 40.8744 32.71 41.4766 31.3742C41.709 30.8506 42.2582 29.9745 43.1987 29.1302C43.3043 29.4721 43.3783 29.8035 43.3677 30.1134C43.357 32.1759 41.8993 32.9452 41.0223 33.2658Z" fill="#CD6799"/>
</g>
<defs>
<clipPath id="clip0_4_410">
<rect width="58" height="44" fill="white"/>
</clipPath>
</defs>
</svg>
