<svg width="52" height="52" viewBox="0 0 52 52" fill="none" xmlns="http://www.w3.org/2000/svg">
<path d="M50.6862 7.93005L27.3504 49.6592C26.8682 50.5209 25.6303 50.5258 25.1416 49.669L1.34269 7.93493C0.809283 6.99974 1.60756 5.86833 2.66747 6.05724L26.0285 10.2323C26.1776 10.2594 26.3303 10.2594 26.4794 10.2323L49.3513 6.06374C50.4067 5.87158 51.2099 6.99365 50.6862 7.93005Z" fill="url(#paint0_linear_4_404)"/>
<path d="M37.1556 0.580948L19.8875 3.9642C19.7497 3.99113 19.6247 4.06308 19.5322 4.16874C19.4397 4.27441 19.3849 4.4078 19.3765 4.54798L18.3133 22.4912C18.3076 22.5896 18.3249 22.688 18.3638 22.7786C18.4027 22.8691 18.4621 22.9494 18.5374 23.013C18.6127 23.0767 18.7017 23.1219 18.7975 23.1451C18.8933 23.1683 18.9932 23.169 19.0893 23.1469L23.8976 22.0358C24.0012 22.012 24.1091 22.0146 24.2114 22.0433C24.3137 22.0721 24.4071 22.126 24.4831 22.2003C24.5591 22.2745 24.6153 22.3667 24.6464 22.4682C24.6776 22.5698 24.6827 22.6776 24.6614 22.7817L23.2326 29.7769C23.2108 29.8846 23.2173 29.9961 23.2514 30.1005C23.2856 30.2049 23.3463 30.2986 23.4276 30.3725C23.5089 30.4464 23.6079 30.498 23.7151 30.5221C23.8223 30.5462 23.9339 30.5421 24.039 30.5102L27.0079 29.6071C27.4682 29.4674 27.911 29.872 27.8143 30.3432L25.5434 41.3311C25.402 42.0184 26.316 42.393 26.6971 41.8039L26.951 41.4107L41.0235 13.3266C41.26 12.8554 40.8525 12.3191 40.3369 12.4191L35.3868 13.3746C35.2803 13.3953 35.1702 13.3882 35.0672 13.3541C34.9642 13.32 34.8717 13.26 34.7985 13.1799C34.7254 13.0997 34.6741 13.0021 34.6495 12.8964C34.625 12.7907 34.6281 12.6805 34.6584 12.5763L37.8881 1.37923C37.9184 1.27468 37.9214 1.16407 37.8965 1.05806C37.8717 0.952056 37.82 0.854228 37.7464 0.774009C37.6728 0.69379 37.5798 0.633886 37.4763 0.600071C37.3728 0.566255 37.2624 0.55967 37.1556 0.580948Z" fill="url(#paint1_linear_4_404)"/>
<defs>
<linearGradient id="paint0_linear_4_404" x1="0.76102" y1="4.56614" x2="29.8054" y2="44.0107" gradientUnits="userSpaceOnUse">
<stop stop-color="#41D1FF"/>
<stop offset="1" stop-color="#BD34FE"/>
</linearGradient>
<linearGradient id="paint1_linear_4_404" x1="24.6878" y1="1.49907" x2="29.9418" y2="37.5408" gradientUnits="userSpaceOnUse">
<stop stop-color="#FFEA83"/>
<stop offset="0.083" stop-color="#FFDD35"/>
<stop offset="1" stop-color="#FFA800"/>
</linearGradient>
</defs>
</svg>
