<svg width="58" height="58" viewBox="0 0 58 58" fill="none" xmlns="http://www.w3.org/2000/svg">
<path fill-rule="evenodd" clip-rule="evenodd" d="M29 4.83337C15.6745 4.83337 4.83337 15.6745 4.83337 29C4.83337 42.3255 15.6745 53.1667 29 53.1667C42.3255 53.1667 53.1667 42.3255 53.1667 29C53.1667 15.6745 42.3255 4.83337 29 4.83337ZM29 52.0599C16.286 52.0599 5.94262 41.7141 5.94262 29C5.94262 16.286 16.286 5.94021 29 5.94021C41.7141 5.94021 52.0599 16.2835 52.0599 29C52.0599 41.7117 41.7165 52.0599 29 52.0599ZM8.26987 29C8.26967 32.8931 9.36547 36.7076 11.4319 40.007C13.4983 43.3064 16.4518 45.9575 19.9545 47.6567L10.063 20.5659C8.87883 23.2199 8.26781 26.0938 8.26987 29ZM42.9974 27.956C42.9974 25.3944 42.0742 23.6205 41.2864 22.2382C40.2351 20.5296 39.2491 19.0845 39.2491 17.3759C39.2491 15.4715 40.6943 13.6977 42.7291 13.6977C42.8226 13.6993 42.9128 13.705 42.9998 13.7146C39.1823 10.2059 34.1851 8.26068 29 8.26504C25.564 8.26354 22.1816 9.11694 19.1576 10.7483C16.1336 12.3797 13.563 14.7379 11.6774 17.6103C12.1655 17.6248 12.6247 17.6345 13.0138 17.6345C15.1815 17.6345 18.5383 17.371 18.5383 17.371C19.6548 17.3058 19.7877 18.9467 18.6712 19.0796C18.6712 19.0796 17.5475 19.2125 16.298 19.2778L23.8477 41.7335L28.3838 28.1276L25.1551 19.2778C24.0386 19.2125 22.9801 19.0796 22.9801 19.0796C21.8636 19.0144 21.9941 17.3058 23.113 17.371C23.113 17.371 26.535 17.6369 28.5723 17.6369C30.74 17.6369 34.0968 17.371 34.0968 17.371C35.2157 17.3058 35.3462 18.9467 34.2297 19.0796C34.2297 19.0796 33.106 19.2125 31.8565 19.2778L39.3482 41.5619L41.4193 34.6526C42.3135 31.784 42.995 29.725 42.995 27.9512M29.365 30.8101L23.1445 48.8868C27.3206 50.1184 31.7786 50.0025 35.8851 48.5557C35.8288 48.4633 35.7787 48.3672 35.7353 48.2681L29.365 30.8101ZM47.1927 19.0506C47.2845 19.7112 47.3313 20.4217 47.3329 21.1821C47.3329 23.2846 46.939 25.6505 45.7548 28.6085L39.4231 46.9172C42.5598 45.095 45.1628 42.4808 46.9717 39.3364C48.7805 36.192 49.7318 32.6276 49.7302 29C49.7356 25.5236 48.8628 22.0997 47.1927 19.0506Z" fill="#21759B"/>
</svg>
